<svg width="33" height="21" viewBox="0 0 33 21" fill="none" xmlns="http://www.w3.org/2000/svg">
<g style="mix-blend-mode:hard-light" opacity="0.76" filter="url(#filter0_d)">
<path d="M9.15625 14.8516H21.6328C22.2995 14.8516 22.9089 14.7969 23.4609 14.6875C24.013 14.5781 24.487 14.3255 24.8828 13.9297C25.2839 13.5286 25.5365 13.0547 25.6406 12.5078C25.7448 11.9609 25.7969 11.3516 25.7969 10.6797V8.03906C25.7969 7.3724 25.7448 6.76562 25.6406 6.21875C25.5365 5.67188 25.2839 5.19792 24.8828 4.79688C24.4818 4.40104 24.0052 4.14844 23.4531 4.03906C22.9062 3.92969 22.2995 3.875 21.6328 3.875H9.14062C8.48438 3.875 7.88021 3.92969 7.32812 4.03906C6.78125 4.14844 6.30729 4.40365 5.90625 4.80469C5.51042 5.20052 5.25781 5.67188 5.14844 6.21875C5.04427 6.76562 4.99219 7.36719 4.99219 8.02344V10.6797C4.99219 11.3516 5.04427 11.9609 5.14844 12.5078C5.2526 13.0547 5.50521 13.5286 5.90625 13.9297C6.30729 14.3255 6.78125 14.5781 7.32812 14.6875C7.88021 14.7969 8.48958 14.8516 9.15625 14.8516ZM8.94531 13.5938C8.54427 13.5938 8.14844 13.5547 7.75781 13.4766C7.3724 13.3984 7.0599 13.2422 6.82031 13.0078C6.58594 12.7734 6.43229 12.4635 6.35938 12.0781C6.28646 11.6927 6.25 11.2995 6.25 10.8984V7.85156C6.25 7.4401 6.28646 7.04167 6.35938 6.65625C6.43229 6.26562 6.58594 5.95052 6.82031 5.71094C7.05469 5.47656 7.36719 5.32292 7.75781 5.25C8.15365 5.17188 8.55729 5.13281 8.96875 5.13281H21.8438C22.2448 5.13281 22.638 5.17188 23.0234 5.25C23.4141 5.32292 23.7292 5.47917 23.9688 5.71875C24.2031 5.95312 24.3568 6.26302 24.4297 6.64844C24.5026 7.03385 24.5391 7.42708 24.5391 7.82812V10.8984C24.5391 11.2995 24.5026 11.6927 24.4297 12.0781C24.3568 12.4635 24.2031 12.7734 23.9688 13.0078C23.7292 13.2474 23.4141 13.4062 23.0234 13.4844C22.638 13.5573 22.2448 13.5938 21.8438 13.5938H8.94531ZM26.8594 11.3828C27.0677 11.3672 27.2839 11.276 27.5078 11.1094C27.7318 10.9375 27.9219 10.7031 28.0781 10.4062C28.2344 10.1094 28.3125 9.76042 28.3125 9.35938C28.3125 8.96354 28.2344 8.61719 28.0781 8.32031C27.9219 8.02344 27.7318 7.78906 27.5078 7.61719C27.2839 7.44531 27.0677 7.35417 26.8594 7.34375V11.3828ZM8.63281 12.6016H22.1641C22.4349 12.6016 22.6536 12.5807 22.8203 12.5391C22.987 12.4974 23.1302 12.4193 23.25 12.3047C23.3646 12.1901 23.4427 12.0495 23.4844 11.8828C23.5312 11.7109 23.5547 11.4896 23.5547 11.2188V7.50781C23.5547 7.23698 23.5312 7.01823 23.4844 6.85156C23.4427 6.67969 23.3646 6.53646 23.25 6.42188C23.1302 6.30208 22.987 6.22396 22.8203 6.1875C22.6536 6.14583 22.4349 6.125 22.1641 6.125H8.63281C8.35677 6.125 8.13542 6.14583 7.96875 6.1875C7.80208 6.22396 7.66146 6.30208 7.54688 6.42188C7.43229 6.53646 7.35156 6.67969 7.30469 6.85156C7.26302 7.01823 7.24219 7.23698 7.24219 7.50781V11.2188C7.24219 11.4896 7.26302 11.7109 7.30469 11.8828C7.35156 12.0495 7.43229 12.1901 7.54688 12.3047C7.66667 12.4193 7.80729 12.4974 7.96875 12.5391C8.13542 12.5807 8.35677 12.6016 8.63281 12.6016Z" fill="black"/>
</g>
<defs>
<filter id="filter0_d" x="0.992188" y="1.875" width="31.3203" height="18.9766" filterUnits="userSpaceOnUse" color-interpolation-filters="sRGB">
<feFlood flood-opacity="0" result="BackgroundImageFix"/>
<feColorMatrix in="SourceAlpha" type="matrix" values="0 0 0 0 0 0 0 0 0 0 0 0 0 0 0 0 0 0 127 0"/>
<feOffset dy="2"/>
<feGaussianBlur stdDeviation="2"/>
<feColorMatrix type="matrix" values="0 0 0 0 0 0 0 0 0 0 0 0 0 0 0 0 0 0 0.15 0"/>
<feBlend mode="normal" in2="BackgroundImageFix" result="effect1_dropShadow"/>
<feBlend mode="normal" in="SourceGraphic" in2="effect1_dropShadow" result="shape"/>
</filter>
</defs>
</svg>
