<svg width="24" height="32" viewBox="0 0 21 24" fill="none" xmlns="http://www.w3.org/2000/svg">
<g filter="url(#filter0_d)">
<path d="M7.62598 17.7266H13.2979C13.9176 17.7266 14.4801 17.5911 14.9854 17.3203C15.4906 17.0547 15.8916 16.6797 16.1885 16.1953C16.4906 15.7161 16.6416 15.1562 16.6416 14.5156C16.6416 13.875 16.4906 13.3151 16.1885 12.8359C15.8916 12.3516 15.4906 11.9766 14.9854 11.7109C14.4801 11.4401 13.9176 11.3047 13.2979 11.3047H7.62598C7.00618 11.3047 6.44368 11.4401 5.93848 11.7109C5.43327 11.9766 5.02962 12.3516 4.72754 12.8359C4.43066 13.3151 4.28223 13.875 4.28223 14.5156C4.28223 15.1562 4.43066 15.7161 4.72754 16.1953C5.02962 16.6797 5.43327 17.0547 5.93848 17.3203C6.44368 17.5911 7.00618 17.7266 7.62598 17.7266ZM13.501 16.5469C13.126 16.5417 12.7848 16.4479 12.4775 16.2656C12.1702 16.0833 11.9255 15.8385 11.7432 15.5312C11.5661 15.224 11.4775 14.8828 11.4775 14.5078C11.4775 14.138 11.5661 13.7995 11.7432 13.4922C11.9255 13.1849 12.1702 12.9401 12.4775 12.7578C12.7848 12.5755 13.126 12.4844 13.501 12.4844C13.876 12.4844 14.2171 12.5755 14.5244 12.7578C14.8369 12.9401 15.0843 13.1849 15.2666 13.4922C15.4489 13.7943 15.5374 14.1302 15.5322 14.5C15.5322 14.875 15.4385 15.2188 15.251 15.5312C15.0687 15.8438 14.8239 16.0911 14.5166 16.2734C14.2145 16.4557 13.876 16.5469 13.501 16.5469ZM7.94629 10.1016H12.9854C13.652 10.1016 14.2614 9.95312 14.8135 9.65625C15.3708 9.35938 15.8135 8.94271 16.1416 8.40625C16.4749 7.86979 16.6416 7.2474 16.6416 6.53906C16.6416 5.83073 16.4749 5.20833 16.1416 4.67188C15.8135 4.13542 15.3708 3.71875 14.8135 3.42188C14.2614 3.125 13.652 2.97656 12.9854 2.97656H7.94629C7.27441 2.97656 6.65983 3.125 6.10254 3.42188C5.55046 3.71875 5.10775 4.13542 4.77441 4.67188C4.44629 5.20833 4.28223 5.83073 4.28223 6.53906C4.28223 7.2474 4.44629 7.86979 4.77441 8.40625C5.10775 8.94271 5.55046 9.35938 6.10254 9.65625C6.65983 9.95312 7.27441 10.1016 7.94629 10.1016ZM7.94629 8.92188C7.50879 8.92188 7.09993 8.82292 6.71973 8.625C6.34473 8.42188 6.04004 8.14323 5.80566 7.78906C5.5765 7.42969 5.46191 7.01302 5.46191 6.53906C5.46191 6.0651 5.5765 5.65104 5.80566 5.29688C6.04004 4.9375 6.34473 4.65885 6.71973 4.46094C7.09993 4.25781 7.50879 4.15625 7.94629 4.15625H12.9854C13.4176 4.15625 13.8213 4.25781 14.1963 4.46094C14.5765 4.65885 14.8812 4.9375 15.1104 5.29688C15.3447 5.65104 15.4619 6.0651 15.4619 6.53906C15.4619 7.01302 15.3447 7.42969 15.1104 7.78906C14.8812 8.14323 14.5765 8.42188 14.1963 8.625C13.8213 8.82292 13.4176 8.92188 12.9854 8.92188H7.94629ZM7.94629 8.39062C8.29004 8.39583 8.59994 8.3151 8.87598 8.14844C9.15723 7.97656 9.38119 7.75 9.54785 7.46875C9.71973 7.18229 9.80566 6.86719 9.80566 6.52344C9.81087 6.17969 9.73014 5.86979 9.56348 5.59375C9.39681 5.3125 9.17025 5.09115 8.88379 4.92969C8.60254 4.76302 8.29004 4.67969 7.94629 4.67969C7.60254 4.67969 7.29004 4.76302 7.00879 4.92969C6.72754 5.09635 6.50358 5.32031 6.33691 5.60156C6.17546 5.88281 6.09473 6.19271 6.09473 6.53125C6.09473 6.875 6.17546 7.1875 6.33691 7.46875C6.50358 7.75 6.72754 7.97396 7.00879 8.14062C7.29004 8.30729 7.60254 8.39062 7.94629 8.39062Z" fill="white" fill-opacity="0.9"/>
</g>
<defs>
<filter id="filter0_d" x="0.282227" y="0.976562" width="20.3594" height="22.75" filterUnits="userSpaceOnUse" color-interpolation-filters="sRGB">
<feFlood flood-opacity="0" result="BackgroundImageFix"/>
<feColorMatrix in="SourceAlpha" type="matrix" values="0 0 0 0 0 0 0 0 0 0 0 0 0 0 0 0 0 0 127 0"/>
<feOffset dy="2"/>
<feGaussianBlur stdDeviation="2"/>
<feColorMatrix type="matrix" values="0 0 0 0 0 0 0 0 0 0 0 0 0 0 0 0 0 0 0.15 0"/>
<feBlend mode="normal" in2="BackgroundImageFix" result="effect1_dropShadow"/>
<feBlend mode="normal" in="SourceGraphic" in2="effect1_dropShadow" result="shape"/>
</filter>
</defs>
</svg>
