<svg width="24" height="24" viewBox="0 0 23 24" fill="none" xmlns="http://www.w3.org/2000/svg">
<g filter="url(#filter0_d)">
<path d="M10.0947 13.5234C10.7406 13.5234 11.3473 13.401 11.915 13.1562C12.4827 12.9115 12.9827 12.5729 13.415 12.1406C13.8473 11.7031 14.1859 11.2005 14.4307 10.6328C14.6807 10.0651 14.8057 9.45833 14.8057 8.8125C14.8057 8.16667 14.6807 7.5599 14.4307 6.99219C14.1859 6.42448 13.8473 5.92448 13.415 5.49219C12.9827 5.0599 12.4827 4.72135 11.915 4.47656C11.3473 4.22656 10.7406 4.10156 10.0947 4.10156C9.44889 4.10156 8.84212 4.22656 8.27441 4.47656C7.70671 4.72135 7.2041 5.0599 6.7666 5.49219C6.33431 5.92448 5.99577 6.42448 5.75098 6.99219C5.50618 7.5599 5.38379 8.16667 5.38379 8.8125C5.38379 9.45833 5.50618 10.0651 5.75098 10.6328C5.99577 11.2005 6.33431 11.7031 6.7666 12.1406C7.2041 12.5729 7.70671 12.9115 8.27441 13.1562C8.84212 13.401 9.44889 13.5234 10.0947 13.5234ZM10.0947 14.8203C9.2666 14.8203 8.49056 14.6641 7.7666 14.3516C7.04264 14.0391 6.40462 13.6068 5.85254 13.0547C5.30046 12.5026 4.86816 11.8646 4.55566 11.1406C4.24316 10.4167 4.08691 9.64062 4.08691 8.8125C4.08691 7.98438 4.24316 7.20833 4.55566 6.48438C4.86816 5.75521 5.30046 5.11719 5.85254 4.57031C6.40462 4.01823 7.04264 3.58594 7.7666 3.27344C8.49577 2.96094 9.27181 2.80469 10.0947 2.80469C10.9229 2.80469 11.6989 2.96094 12.4229 3.27344C13.1468 3.58594 13.7848 4.01823 14.3369 4.57031C14.889 5.1224 15.3213 5.76042 15.6338 6.48438C15.9463 7.20833 16.1025 7.98438 16.1025 8.8125C16.1025 9.64062 15.9463 10.4167 15.6338 11.1406C15.3213 11.8646 14.889 12.5026 14.3369 13.0547C13.7848 13.6068 13.1468 14.0391 12.4229 14.3516C11.6989 14.6641 10.9229 14.8203 10.0947 14.8203ZM17.9307 17.6562C17.8109 17.6562 17.6963 17.6354 17.5869 17.5938C17.4775 17.5521 17.3786 17.487 17.29 17.3984L13.1416 13.25L14.4229 12.0078L18.5479 16.1406C18.6364 16.224 18.6989 16.3203 18.7354 16.4297C18.777 16.5391 18.7979 16.651 18.7979 16.7656C18.7979 16.9323 18.7588 17.0807 18.6807 17.2109C18.6077 17.3464 18.5062 17.4531 18.376 17.5312C18.2458 17.6146 18.0973 17.6562 17.9307 17.6562Z" fill="white" fill-opacity="0.9"/>
</g>
<defs>
<filter id="filter0_d" x="0.0869141" y="0.804688" width="22.7109" height="22.8516" filterUnits="userSpaceOnUse" color-interpolation-filters="sRGB">
<feFlood flood-opacity="0" result="BackgroundImageFix"/>
<feColorMatrix in="SourceAlpha" type="matrix" values="0 0 0 0 0 0 0 0 0 0 0 0 0 0 0 0 0 0 127 0"/>
<feOffset dy="2"/>
<feGaussianBlur stdDeviation="2"/>
<feColorMatrix type="matrix" values="0 0 0 0 0 0 0 0 0 0 0 0 0 0 0 0 0 0 0.15 0"/>
<feBlend mode="normal" in2="BackgroundImageFix" result="effect1_dropShadow"/>
<feBlend mode="normal" in="SourceGraphic" in2="effect1_dropShadow" result="shape"/>
</filter>
</defs>
</svg>
