<svg width="26" height="21" viewBox="0 0 26 21" fill="none" xmlns="http://www.w3.org/2000/svg">
<g style="mix-blend-mode:hard-light" opacity="0.76" filter="url(#filter0_d)">
<path d="M12.6484 14.7461C12.7318 14.7461 12.8151 14.7201 12.8984 14.668C12.987 14.6159 13.1042 14.5195 13.25 14.3789L15.0781 12.6211C15.1406 12.5638 15.1745 12.4987 15.1797 12.4258C15.1901 12.3477 15.1693 12.2747 15.1172 12.207C14.8724 11.8893 14.5312 11.6133 14.0938 11.3789C13.6615 11.1445 13.1797 11.0273 12.6484 11.0273C12.1068 11.0273 11.6146 11.1497 11.1719 11.3945C10.7344 11.6393 10.3932 11.9258 10.1484 12.2539C10.112 12.3112 10.099 12.3737 10.1094 12.4414C10.125 12.5039 10.1641 12.5638 10.2266 12.6211L12.0547 14.3789C12.1953 14.5195 12.3099 14.6159 12.3984 14.668C12.487 14.7201 12.5703 14.7461 12.6484 14.7461ZM8.25781 10.6445C8.33594 10.7227 8.42188 10.7591 8.51562 10.7539C8.60938 10.7487 8.69531 10.7044 8.77344 10.6211C9.22135 10.1159 9.79167 9.70182 10.4844 9.37891C11.1771 9.05599 11.8984 8.89714 12.6484 8.90234C13.4089 8.89714 14.1354 9.0612 14.8281 9.39453C15.5208 9.72266 16.0964 10.1393 16.5547 10.6445C16.6276 10.7227 16.7083 10.7617 16.7969 10.7617C16.8854 10.7565 16.9661 10.7148 17.0391 10.6367L18.2031 9.48828C18.2656 9.42578 18.2995 9.35807 18.3047 9.28516C18.3099 9.20703 18.2865 9.13411 18.2344 9.06641C17.8542 8.60286 17.3776 8.1888 16.8047 7.82422C16.2318 7.45443 15.5911 7.16536 14.8828 6.95703C14.1745 6.74349 13.4297 6.63672 12.6484 6.63672C11.8672 6.63672 11.1224 6.74349 10.4141 6.95703C9.71094 7.16536 9.07292 7.45443 8.5 7.82422C7.92708 8.1888 7.45052 8.60286 7.07031 9.06641C7.01302 9.13411 6.98698 9.20443 6.99219 9.27734C6.9974 9.35026 7.03125 9.42057 7.09375 9.48828L8.25781 10.6445ZM5.13281 7.51172C5.20573 7.58984 5.28906 7.62891 5.38281 7.62891C5.48177 7.6237 5.5651 7.58203 5.63281 7.50391C6.5599 6.52474 7.61979 5.78255 8.8125 5.27734C10.0052 4.76693 11.2839 4.51172 12.6484 4.51172C14.0182 4.51172 15.2995 4.76693 16.4922 5.27734C17.6901 5.78776 18.75 6.53255 19.6719 7.51172C19.7396 7.57943 19.8203 7.61328 19.9141 7.61328C20.0078 7.61328 20.0885 7.57422 20.1562 7.49609L21.1875 6.45703C21.2552 6.39453 21.2891 6.32422 21.2891 6.24609C21.2943 6.16276 21.2708 6.08984 21.2188 6.02734C20.6302 5.30339 19.888 4.65755 18.9922 4.08984C18.0964 3.51693 17.1042 3.06901 16.0156 2.74609C14.9323 2.41797 13.8099 2.25391 12.6484 2.25391C11.487 2.25391 10.362 2.41797 9.27344 2.74609C8.1849 3.06901 7.19271 3.51693 6.29688 4.08984C5.40625 4.65755 4.66667 5.30339 4.07812 6.02734C4.02604 6.08984 4 6.16276 4 6.24609C4.00521 6.32422 4.03906 6.39453 4.10156 6.45703L5.13281 7.51172Z" fill="black"/>
</g>
<defs>
<filter id="filter0_d" x="0" y="0.253906" width="25.2898" height="20.4922" filterUnits="userSpaceOnUse" color-interpolation-filters="sRGB">
<feFlood flood-opacity="0" result="BackgroundImageFix"/>
<feColorMatrix in="SourceAlpha" type="matrix" values="0 0 0 0 0 0 0 0 0 0 0 0 0 0 0 0 0 0 127 0"/>
<feOffset dy="2"/>
<feGaussianBlur stdDeviation="2"/>
<feColorMatrix type="matrix" values="0 0 0 0 0 0 0 0 0 0 0 0 0 0 0 0 0 0 0.15 0"/>
<feBlend mode="normal" in2="BackgroundImageFix" result="effect1_dropShadow"/>
<feBlend mode="normal" in="SourceGraphic" in2="effect1_dropShadow" result="shape"/>
</filter>
</defs>
</svg>
