<svg width="24" height="21" viewBox="0 0 33 21" fill="none" xmlns="http://www.w3.org/2000/svg">
<g filter="url(#filter0_d)">
<path d="M9.15674 14.8516H21.6333C22.3 14.8516 22.9093 14.7969 23.4614 14.6875C24.0135 14.5781 24.4875 14.3255 24.8833 13.9297C25.2843 13.5286 25.5369 13.0547 25.6411 12.5078C25.7453 11.9609 25.7974 11.3516 25.7974 10.6797V8.03906C25.7974 7.3724 25.7453 6.76562 25.6411 6.21875C25.5369 5.67188 25.2843 5.19792 24.8833 4.79688C24.4823 4.40104 24.0057 4.14844 23.4536 4.03906C22.9067 3.92969 22.3 3.875 21.6333 3.875H9.14111C8.48486 3.875 7.8807 3.92969 7.32861 4.03906C6.78174 4.14844 6.30778 4.40365 5.90674 4.80469C5.5109 5.20052 5.2583 5.67188 5.14893 6.21875C5.04476 6.76562 4.99268 7.36719 4.99268 8.02344V10.6797C4.99268 11.3516 5.04476 11.9609 5.14893 12.5078C5.25309 13.0547 5.5057 13.5286 5.90674 13.9297C6.30778 14.3255 6.78174 14.5781 7.32861 14.6875C7.8807 14.7969 8.49007 14.8516 9.15674 14.8516ZM8.9458 13.5938C8.54476 13.5938 8.14893 13.5547 7.7583 13.4766C7.37288 13.3984 7.06038 13.2422 6.8208 13.0078C6.58643 12.7734 6.43278 12.4635 6.35986 12.0781C6.28695 11.6927 6.25049 11.2995 6.25049 10.8984V7.85156C6.25049 7.4401 6.28695 7.04167 6.35986 6.65625C6.43278 6.26562 6.58643 5.95052 6.8208 5.71094C7.05518 5.47656 7.36768 5.32292 7.7583 5.25C8.15413 5.17188 8.55778 5.13281 8.96924 5.13281H21.8442C22.2453 5.13281 22.6385 5.17188 23.0239 5.25C23.4146 5.32292 23.7297 5.47917 23.9692 5.71875C24.2036 5.95312 24.3573 6.26302 24.4302 6.64844C24.5031 7.03385 24.5396 7.42708 24.5396 7.82812V10.8984C24.5396 11.2995 24.5031 11.6927 24.4302 12.0781C24.3573 12.4635 24.2036 12.7734 23.9692 13.0078C23.7297 13.2474 23.4146 13.4062 23.0239 13.4844C22.6385 13.5573 22.2453 13.5938 21.8442 13.5938H8.9458ZM26.8599 11.3828C27.0682 11.3672 27.2843 11.276 27.5083 11.1094C27.7323 10.9375 27.9224 10.7031 28.0786 10.4062C28.2349 10.1094 28.313 9.76042 28.313 9.35938C28.313 8.96354 28.2349 8.61719 28.0786 8.32031C27.9224 8.02344 27.7323 7.78906 27.5083 7.61719C27.2843 7.44531 27.0682 7.35417 26.8599 7.34375V11.3828ZM8.6333 12.6016H22.1646C22.4354 12.6016 22.6541 12.5807 22.8208 12.5391C22.9875 12.4974 23.1307 12.4193 23.2505 12.3047C23.3651 12.1901 23.4432 12.0495 23.4849 11.8828C23.5317 11.7109 23.5552 11.4896 23.5552 11.2188V7.50781C23.5552 7.23698 23.5317 7.01823 23.4849 6.85156C23.4432 6.67969 23.3651 6.53646 23.2505 6.42188C23.1307 6.30208 22.9875 6.22396 22.8208 6.1875C22.6541 6.14583 22.4354 6.125 22.1646 6.125H8.6333C8.35726 6.125 8.13591 6.14583 7.96924 6.1875C7.80257 6.22396 7.66195 6.30208 7.54736 6.42188C7.43278 6.53646 7.35205 6.67969 7.30518 6.85156C7.26351 7.01823 7.24268 7.23698 7.24268 7.50781V11.2188C7.24268 11.4896 7.26351 11.7109 7.30518 11.8828C7.35205 12.0495 7.43278 12.1901 7.54736 12.3047C7.66716 12.4193 7.80778 12.4974 7.96924 12.5391C8.13591 12.5807 8.35726 12.6016 8.6333 12.6016Z" fill="white" fill-opacity="0.9"/>
</g>
<defs>
<filter id="filter0_d" x="0.992676" y="1.875" width="31.3203" height="18.9766" filterUnits="userSpaceOnUse" color-interpolation-filters="sRGB">
<feFlood flood-opacity="0" result="BackgroundImageFix"/>
<feColorMatrix in="SourceAlpha" type="matrix" values="0 0 0 0 0 0 0 0 0 0 0 0 0 0 0 0 0 0 127 0"/>
<feOffset dy="2"/>
<feGaussianBlur stdDeviation="2"/>
<feColorMatrix type="matrix" values="0 0 0 0 0 0 0 0 0 0 0 0 0 0 0 0 0 0 0.15 0"/>
<feBlend mode="normal" in2="BackgroundImageFix" result="effect1_dropShadow"/>
<feBlend mode="normal" in="SourceGraphic" in2="effect1_dropShadow" result="shape"/>
</filter>
</defs>
</svg>
